<svg xmlns="http://www.w3.org/2000/svg" width="17" height="16" viewBox="0 0 17 16" fill="none">
  <path fill-rule="evenodd" clip-rule="evenodd" d="M15.4062 8C15.4062 9.66477 14.7413 11.1834 13.6477 12.3333C12.3831 13.6631 10.5454 14.5 8.5 14.5C6.4546 14.5 4.61688 13.6631 3.3523 12.3333C2.25871 11.1834 1.59375 9.66477 1.59375 8C1.59375 4.41015 4.68578 1.5 8.5 1.5C12.3142 1.5 15.4062 4.41015 15.4062 8ZM8.5 3C7.22859 3 6.19792 3.97005 6.19792 5.16667C6.19792 6.36328 7.22859 7.33333 8.5 7.33333C9.7714 7.33333 10.8021 6.36328 10.8021 5.16667C10.8021 3.97005 9.7714 3 8.5 3ZM8.45492 8.16667C6.77804 8.16667 5.22241 9.04076 4.3503 10.473C4.18548 10.7437 4.21416 11.0932 4.44141 11.3141C5.51686 12.3595 6.86321 13 8.5 13C10.1368 13 11.4831 12.3595 12.5586 11.3141C12.7858 11.0932 12.8145 10.7437 12.6497 10.473C11.7776 9.04076 10.222 8.16667 8.54508 8.16667H8.45492Z" fill="#292556"/>
</svg>